<?xml version="1.0" encoding="UTF-8"?>
<!-- Generator: CustomSymbols v2.7.2.48 by @serious_bret https://bretlester.com/app_content/CustomSymbols/ -->
<!-- Guides: Left/Right 0.066/0.071 Cap/Base 0.177/0.232 -->
<!-- Settings: RefScale 1.0 Min/Max Stroke Scales 0.5/2.21 -->
<!DOCTYPE svg
PUBLIC "-//W3C//DTD SVG 1.1//EN"
       "http://www.w3.org/Graphics/SVG/1.1/DTD/svg11.dtd">
<svg version="1.1" xmlns="http://www.w3.org/2000/svg" xmlns:xlink="http://www.w3.org/1999/xlink" width="3300" height="2200">
<![CDATA[<svg xmlns="http://www.w3.org/2000/svg" width="48" height="48" viewBox="0 0 48 48">
    <path d="M0 0h48v48h-48z" fill="none"/>
    <path d="M39.54 14.46l.03-.03-7.45-7.43-2.12 2.12 4.22 4.22c-1.88.72-3.22 2.53-3.22 4.66 0 2.76 2.24 5 5 5 .71 0 1.39-.15 2-.42v14.42c0 1.1-.9 2-2 2s-2-.9-2-2v-9c0-2.21-1.79-4-4-4h-2v-14c0-2.21-1.79-4-4-4h-12c-2.21 0-4 1.79-4 4v32h20v-15h3v10c0 2.76 2.24 5 5 5s5-2.24 5-5v-19c0-1.38-.56-2.63-1.46-3.54zm-15.54 5.54h-12v-10h12v10zm12 0c-1.1 0-2-.9-2-2s.9-2 2-2 2 .9 2 2-.9 2-2 2z"/>
</svg>
]]>
 <g id="Notes">
  <rect height="2200" id="artboard" style="fill:white;opacity:1" width="3300" x="0" y="0"/>
  <line id="" style="fill:none;stroke:black;opacity:1;stroke-width:0.5;" x1="263" x2="3036" y1="292" y2="292"/>
  <text id="reftext1" style="stroke:none;fill:black;font-family:-apple-system,&quot;SF Pro Display&quot;,&quot;SF Pro Text&quot;,Helvetica,sans-serif;font-weight:bold;" transform="matrix(1 0 0 1 263 322)">Weight/Scale Variations</text>
  <text id="reftext2" style="stroke:none;fill:black;font-family:-apple-system,&quot;SF Pro Display&quot;,&quot;SF Pro Text&quot;,Helvetica,sans-serif;text-anchor:middle;" transform="matrix(1 0 0 1 559.711 322)">Ultralight</text>
  <text style="stroke:none;fill:black;font-family:-apple-system,&quot;SF Pro Display&quot;,&quot;SF Pro Text&quot;,Helvetica,sans-serif;text-anchor:middle;" transform="matrix(1 0 0 1 856.422 322)">Thin</text>
  <text style="stroke:none;fill:black;font-family:-apple-system,&quot;SF Pro Display&quot;,&quot;SF Pro Text&quot;,Helvetica,sans-serif;text-anchor:middle;" transform="matrix(1 0 0 1 1153.13 322)">Light</text>
  <text style="stroke:none;fill:black;font-family:-apple-system,&quot;SF Pro Display&quot;,&quot;SF Pro Text&quot;,Helvetica,sans-serif;text-anchor:middle;" transform="matrix(1 0 0 1 1449.84 322)">Regular</text>
  <text style="stroke:none;fill:black;font-family:-apple-system,&quot;SF Pro Display&quot;,&quot;SF Pro Text&quot;,Helvetica,sans-serif;text-anchor:middle;" transform="matrix(1 0 0 1 1746.56 322)">Medium</text>
  <text style="stroke:none;fill:black;font-family:-apple-system,&quot;SF Pro Display&quot;,&quot;SF Pro Text&quot;,Helvetica,sans-serif;text-anchor:middle;" transform="matrix(1 0 0 1 2043.27 322)">Semibold</text>
  <text style="stroke:none;fill:black;font-family:-apple-system,&quot;SF Pro Display&quot;,&quot;SF Pro Text&quot;,Helvetica,sans-serif;text-anchor:middle;" transform="matrix(1 0 0 1 2339.98 322)">Bold</text>
  <text style="stroke:none;fill:black;font-family:-apple-system,&quot;SF Pro Display&quot;,&quot;SF Pro Text&quot;,Helvetica,sans-serif;text-anchor:middle;" transform="matrix(1 0 0 1 2636.69 322)">Heavy</text>
  <text style="stroke:none;fill:black;font-family:-apple-system,&quot;SF Pro Display&quot;,&quot;SF Pro Text&quot;,Helvetica,sans-serif;text-anchor:middle;" transform="matrix(1 0 0 1 2933.4 322)">Black</text>
  <line id="" style="fill:none;stroke:black;opacity:1;stroke-width:0.5;" x1="263" x2="3036" y1="1903" y2="1903"/>
  <g id="" transform="matrix(1 0 0 1 263 1933)">
   <path d="M9.24805 0.830078C13.5547 0.830078 17.1387-2.74414 17.1387-7.05078C17.1387-11.3574 13.5449-14.9316 9.23828-14.9316C4.94141-14.9316 1.36719-11.3574 1.36719-7.05078C1.36719-2.74414 4.95117 0.830078 9.24805 0.830078ZM9.24805-0.654297C5.70312-0.654297 2.87109-3.49609 2.87109-7.05078C2.87109-10.6055 5.69336-13.4473 9.23828-13.4473C12.793-13.4473 15.6348-10.6055 15.6445-7.05078C15.6543-3.49609 12.8027-0.654297 9.24805-0.654297ZM6.39648-6.31836L8.50586-6.31836L8.50586-4.19922C8.50586-3.75977 8.79883-3.45703 9.22852-3.45703C9.67773-3.45703 9.9707-3.75977 9.9707-4.19922L9.9707-6.31836L12.0996-6.31836C12.5391-6.31836 12.8418-6.61133 12.8418-7.04102C12.8418-7.48047 12.5391-7.7832 12.0996-7.7832L9.9707-7.7832L9.9707-9.89258C9.9707-10.3418 9.67773-10.6445 9.22852-10.6445C8.79883-10.6445 8.50586-10.3418 8.50586-9.89258L8.50586-7.7832L6.39648-7.7832C5.94727-7.7832 5.64453-7.48047 5.64453-7.04102C5.64453-6.61133 5.94727-6.31836 6.39648-6.31836Z"/>
  </g>
  <g id="" transform="matrix(1 0 0 1 281.506 1933)">
   <path d="M11.709 2.91016C17.1582 2.91016 21.6699-1.61133 21.6699-7.05078C21.6699-12.5 17.1484-17.0117 11.6992-17.0117C6.25977-17.0117 1.74805-12.5 1.74805-7.05078C1.74805-1.61133 6.26953 2.91016 11.709 2.91016ZM11.709 1.25C7.09961 1.25 3.41797-2.44141 3.41797-7.05078C3.41797-11.6602 7.08984-15.3516 11.6992-15.3516C16.3086-15.3516 20-11.6602 20.0098-7.05078C20.0195-2.44141 16.3184 1.25 11.709 1.25ZM7.98828-6.23047L10.8789-6.23047L10.8789-3.32031C10.8789-2.83203 11.2109-2.5 11.6895-2.5C12.1777-2.5 12.5195-2.83203 12.5195-3.32031L12.5195-6.23047L15.4297-6.23047C15.918-6.23047 16.25-6.5625 16.25-7.04102C16.25-7.5293 15.918-7.87109 15.4297-7.87109L12.5195-7.87109L12.5195-10.7617C12.5195-11.2695 12.1777-11.6016 11.6895-11.6016C11.2109-11.6016 10.8789-11.2598 10.8789-10.7617L10.8789-7.87109L7.98828-7.87109C7.48047-7.87109 7.14844-7.5293 7.14844-7.04102C7.14844-6.5625 7.49023-6.23047 7.98828-6.23047Z"/>
  </g>
  <g id="" transform="matrix(1 0 0 1 304.924 1933)">
   <path d="M14.9707 5.66406C21.9336 5.66406 27.6953-0.0976562 27.6953-7.05078C27.6953-14.0137 21.9238-19.7754 14.9609-19.7754C8.00781-19.7754 2.25586-14.0137 2.25586-7.05078C2.25586-0.0976562 8.01758 5.66406 14.9707 5.66406ZM14.9707 3.84766C8.93555 3.84766 4.08203-1.01562 4.08203-7.05078C4.08203-13.0957 8.92578-17.9492 14.9609-17.9492C21.0059-17.9492 25.8594-13.0957 25.8691-7.05078C25.8789-1.01562 21.0156 3.84766 14.9707 3.84766ZM10.0586-6.14258L14.0625-6.14258L14.0625-2.12891C14.0625-1.5918 14.4336-1.2207 14.9512-1.2207C15.4883-1.2207 15.8594-1.5918 15.8594-2.12891L15.8594-6.14258L19.8828-6.14258C20.4102-6.14258 20.791-6.51367 20.791-7.03125C20.791-7.56836 20.4199-7.94922 19.8828-7.94922L15.8594-7.94922L15.8594-11.9531C15.8594-12.5098 15.4883-12.8809 14.9512-12.8809C14.4336-12.8809 14.0625-12.5 14.0625-11.9531L14.0625-7.94922L10.0586-7.94922C9.50195-7.94922 9.13086-7.56836 9.13086-7.03125C9.13086-6.51367 9.51172-6.14258 10.0586-6.14258Z"/>
  </g>
  <text style="stroke:none;fill:black;font-family:-apple-system,&quot;SF Pro Display&quot;,&quot;SF Pro Text&quot;,Helvetica,sans-serif;font-weight:bold;" transform="matrix(1 0 0 1 263 1953)">Design Variations</text>
  <text style="stroke:none;fill:black;font-family:-apple-system,&quot;SF Pro Display&quot;,&quot;SF Pro Text&quot;,Helvetica,sans-serif;" transform="matrix(1 0 0 1 263 1971)">Symbols are supported in up to nine weights and three scales.</text>
  <text style="stroke:none;fill:black;font-family:-apple-system,&quot;SF Pro Display&quot;,&quot;SF Pro Text&quot;,Helvetica,sans-serif;" transform="matrix(1 0 0 1 263 1989)">For optimal layout with text and other symbols, vertically align</text>
  <text style="stroke:none;fill:black;font-family:-apple-system,&quot;SF Pro Display&quot;,&quot;SF Pro Text&quot;,Helvetica,sans-serif;" transform="matrix(1 0 0 1 263 2007)">symbols with the adjacent text.</text>
  <line id="" style="fill:none;stroke:#00AEEF;stroke-width:0.5;opacity:1.0;" x1="776" x2="776" y1="1919" y2="1933"/>
  <g id="" transform="matrix(1 0 0 1 776 1933)">
   <path d="M3.31055 0.126953C3.82812 0.126953 4.08203-0.0683594 4.26758-0.605469L5.52734-4.0625L11.2891-4.0625L12.5488-0.605469C12.7344-0.0683594 12.9883 0.126953 13.4961 0.126953C14.0137 0.126953 14.3457-0.185547 14.3457-0.673828C14.3457-0.839844 14.3164-0.986328 14.2383-1.20117L9.6582-13.3887C9.43359-13.9941 9.0332-14.2871 8.4082-14.2871C7.80273-14.2871 7.39258-13.9941 7.17773-13.3984L2.59766-1.19141C2.51953-0.976562 2.49023-0.830078 2.49023-0.664062C2.49023-0.175781 2.80273 0.126953 3.31055 0.126953ZM6.00586-5.53711L8.37891-12.1094L8.42773-12.1094L10.8008-5.53711Z"/>
  </g>
  <line id="" style="fill:none;stroke:#00AEEF;stroke-width:0.5;opacity:1.0;" x1="792.836" x2="792.836" y1="1919" y2="1933"/>
  <text style="stroke:none;fill:black;font-family:-apple-system,&quot;SF Pro Display&quot;,&quot;SF Pro Text&quot;,Helvetica,sans-serif;font-weight:bold;" transform="matrix(1 0 0 1 776 1953)">Margins</text>
  <text style="stroke:none;fill:black;font-family:-apple-system,&quot;SF Pro Display&quot;,&quot;SF Pro Text&quot;,Helvetica,sans-serif;" transform="matrix(1 0 0 1 776 1971)">Leading and trailing margins on the left and right side of each symbol</text>
  <text style="stroke:none;fill:black;font-family:-apple-system,&quot;SF Pro Display&quot;,&quot;SF Pro Text&quot;,Helvetica,sans-serif;" transform="matrix(1 0 0 1 776 1989)">can be adjusted by modifying the x-location of the margin guidelines.</text>
  <text style="stroke:none;fill:black;font-family:-apple-system,&quot;SF Pro Display&quot;,&quot;SF Pro Text&quot;,Helvetica,sans-serif;" transform="matrix(1 0 0 1 776 2007)">Modifications are automatically applied proportionally to all</text>
  <text style="stroke:none;fill:black;font-family:-apple-system,&quot;SF Pro Display&quot;,&quot;SF Pro Text&quot;,Helvetica,sans-serif;" transform="matrix(1 0 0 1 776 2025)">scales and weights.</text>
  <g id="" transform="matrix(1 0 0 1 1289 1933)">
   <path d="M2.8418 1.86523L4.54102 3.57422C5.40039 4.44336 6.38672 4.38477 7.31445 3.35938L17.4902-7.85156C17.7539-7.76367 18.0273-7.7832 18.3398-7.8418L19.4043-8.03711L20.0684-7.36328L20.0293-6.80664C19.9902-6.30859 20.1172-5.92773 20.6055-5.44922L21.3672-4.70703C21.8457-4.22852 22.4609-4.19922 22.9297-4.66797L25.8398-7.58789C26.3086-8.05664 26.2891-8.65234 25.8105-9.13086L25.0391-9.89258C24.5605-10.3711 24.1895-10.5273 23.7109-10.4883L23.1348-10.4395L22.4902-11.0742L22.7344-12.1973C22.8613-12.7637 22.7051-13.2031 22.1191-13.7891L19.9219-15.9766C16.582-19.2969 12.1484-19.2188 9.25781-16.3281C8.83789-15.918 8.80859-15.3418 9.04297-14.9512C9.27734-14.5898 9.73633-14.3555 10.3809-14.5215C11.8457-14.8633 13.3691-14.9219 14.7949-13.9844L14.209-12.5293C14.0137-12.0508 13.9844-11.6504 14.1113-11.2891L3.04688-0.898438C2.06055 0.0195312 1.98242 0.996094 2.8418 1.86523ZM10.752-15.957C13.1836-17.7344 16.4746-17.4316 18.7012-15.2051L21.1328-12.793C21.3672-12.5586 21.4062-12.373 21.3379-12.0312L21.0156-10.5469L22.5195-9.0625L23.5059-9.12109C23.7598-9.13086 23.8379-9.11133 24.0332-8.91602L24.6094-8.33984L22.168-5.89844L21.5918-6.47461C21.3965-6.66992 21.3672-6.74805 21.377-7.01172L21.4453-7.98828L19.9512-9.47266L18.4277-9.21875C18.1055-9.15039 17.959-9.17969 17.7148-9.41406L15.7129-11.416C15.459-11.6504 15.4297-11.8164 15.5859-12.1875L16.4648-14.2773C14.9023-15.7324 12.8711-16.3574 10.8398-15.7617C10.6836-15.7227 10.625-15.8496 10.752-15.957ZM5.27344 2.30469L4.10156 1.14258C3.63281 0.683594 3.74023 0.341797 4.14062-0.0195312L14.9512-10.1953L16.416-8.71094L6.42578 2.27539C6.07422 2.67578 5.74219 2.77344 5.27344 2.30469Z"/>
  </g>
  <text style="stroke:none;fill:black;font-family:-apple-system,&quot;SF Pro Display&quot;,&quot;SF Pro Text&quot;,Helvetica,sans-serif;font-weight:bold;" transform="matrix(1 0 0 1 1289 1953)">Exporting</text>
  <text style="stroke:none;fill:black;font-family:-apple-system,&quot;SF Pro Display&quot;,&quot;SF Pro Text&quot;,Helvetica,sans-serif;" transform="matrix(1 0 0 1 1289 1971)">Symbols should be outlined when exporting to ensure the</text>
  <text style="stroke:none;fill:black;font-family:-apple-system,&quot;SF Pro Display&quot;,&quot;SF Pro Text&quot;,Helvetica,sans-serif;" transform="matrix(1 0 0 1 1289 1989)">design is preserved when submitting to Xcode.</text>
  <text id="template-version" style="stroke:none;fill:black;font-family:-apple-system,&quot;SF Pro Display&quot;,&quot;SF Pro Text&quot;,Helvetica,sans-serif;text-anchor:end;" transform="matrix(1 0 0 1 3036 1933)">Template v.2.0</text>
  <text style="stroke:none;fill:black;font-family:-apple-system,&quot;SF Pro Display&quot;,&quot;SF Pro Text&quot;,Helvetica,sans-serif;text-anchor:end;" transform="matrix(1 0 0 1 3036 1951)">Requires Xcode 12 or greater</text>
  <text style="stroke:none;fill:black;font-family:-apple-system,&quot;SF Pro Display&quot;,&quot;SF Pro Text&quot;,Helvetica,sans-serif;" transform="matrix(1 0 0 1 263 726)">Small</text>
  <text style="stroke:none;fill:black;font-family:-apple-system,&quot;SF Pro Display&quot;,&quot;SF Pro Text&quot;,Helvetica,sans-serif;" transform="matrix(1 0 0 1 263 1156)">Medium</text>
  <text style="stroke:none;fill:black;font-family:-apple-system,&quot;SF Pro Display&quot;,&quot;SF Pro Text&quot;,Helvetica,sans-serif;" transform="matrix(1 0 0 1 263 1586)">Large</text>
 </g>
 <g id="Guides">
  <g id="H-reference" style="fill:#27AAE1;stroke:none;" transform="matrix(1 0 0 1 339 696)">
   <path d="M0.976562 0L3.66211 0L12.9883-24.4629L45.752-24.4629L55.127 0L57.7637 0L30.6152-70.459L28.125-70.459ZM29.3457-67.1387L29.4434-67.1387L44.873-26.709L13.8672-26.709Z"/>
  </g>
  <line id="Baseline-S" style="fill:none;stroke:#27AAE1;opacity:1;stroke-width:0.5;" x1="263" x2="3036" y1="696" y2="696"/>
  <line id="Capline-S" style="fill:none;stroke:#27AAE1;opacity:1;stroke-width:0.5;" x1="263" x2="3036" y1="625.541" y2="625.541"/>
  <g id="H-reference" style="fill:#27AAE1;stroke:none;" transform="matrix(1 0 0 1 339 1126)">
   <path d="M0.976562 0L3.66211 0L12.9883-24.4629L45.752-24.4629L55.127 0L57.7637 0L30.6152-70.459L28.125-70.459ZM29.3457-67.1387L29.4434-67.1387L44.873-26.709L13.8672-26.709Z"/>
  </g>
  <line id="Baseline-M" style="fill:none;stroke:#27AAE1;opacity:1;stroke-width:0.5;" x1="263" x2="3036" y1="1126" y2="1126"/>
  <line id="Capline-M" style="fill:none;stroke:#27AAE1;opacity:1;stroke-width:0.5;" x1="263" x2="3036" y1="1055.54" y2="1055.54"/>
  <g id="H-reference" style="fill:#27AAE1;stroke:none;" transform="matrix(1 0 0 1 339 1556)">
   <path d="M0.976562 0L3.66211 0L12.9883-24.4629L45.752-24.4629L55.127 0L57.7637 0L30.6152-70.459L28.125-70.459ZM29.3457-67.1387L29.4434-67.1387L44.873-26.709L13.8672-26.709Z"/>
  </g>
  <line id="Baseline-L" style="fill:none;stroke:#27AAE1;opacity:1;stroke-width:0.5;" x1="263" x2="3036" y1="1556" y2="1556"/>
  <line id="Capline-L" style="fill:none;stroke:#27AAE1;opacity:1;stroke-width:0.5;" x1="263" x2="3036" y1="1485.54" y2="1485.54"/>
  <line id="left-margin" x1="1399.3878290239002" x2="1399.3878290239002" y1="1030.79" y2="1150.12" style="fill:none;stroke:#00AEEF;stroke-width:0.5;opacity:1.0;"/>
  <line id="right-margin" x1="1502.2760630155456" x2="1502.2760630155456" y1="1030.79" y2="1150.12" style="fill:none;stroke:#00AEEF;stroke-width:0.5;opacity:1.0;"/>
 </g>
 <g id="Symbols">
  <g id="Black-L" transform="matrix(1.0,0.0,0.0,1.0,2857.782073088515,1448.1014785998968)">  <path stroke-opacity="1" fill-rule="nonzero" stroke-width="1px" fill="#000000" stroke="none" stroke-linejoin="miter" stroke-linecap="butt" fill-opacity="1" stroke-dasharray="none" stroke-miterlimit="4" d="M126.689,46.331L126.785,46.235L102.915,22.429L96.122,29.221L109.644,42.742C103.62,45.049,99.326,50.849,99.326,57.673C99.326,66.517,106.504,73.694,115.347,73.694C117.622,73.694,119.801,73.213,121.755,72.348L121.755,118.551C121.755,122.075,118.871,124.959,115.347,124.959C111.822,124.959,108.939,122.075,108.939,118.551L108.939,89.714C108.939,82.633,103.203,76.898,96.122,76.898L89.714,76.898L89.714,32.041C89.714,24.96,83.979,19.224,76.898,19.224L38.449,19.224C31.368,19.224,25.633,24.96,25.633,32.041L25.633,134.571L89.714,134.571L89.714,86.51L99.326,86.51L99.326,118.551C99.326,127.394,106.504,134.571,115.347,134.571C124.19,134.571,131.367,127.394,131.367,118.551L131.367,57.673C131.367,53.252,129.573,49.247,126.689,46.331ZM76.898,64.082L38.449,64.082L38.449,32.041L76.898,32.041L76.898,64.082ZM115.347,64.082C111.822,64.082,108.939,61.198,108.939,57.673C108.939,54.149,111.822,51.265,115.347,51.265C118.871,51.265,121.755,54.149,121.755,57.673C121.755,61.198,118.871,64.082,115.347,64.082ZM115.347,64.082"/>
</g>
  <g id="Heavy-L" transform="matrix(1.0,0.0,0.0,1.0,2561.072073088515,1448.1014785998968)">  <path stroke-linejoin="miter" stroke-linecap="butt" stroke="none" stroke-miterlimit="4" fill="#000000" stroke-dasharray="none" fill-rule="nonzero" stroke-opacity="1" stroke-width="1px" fill-opacity="1" d="M126.689,46.331L126.785,46.235L102.915,22.429L96.122,29.221L109.644,42.742C103.62,45.049,99.326,50.849,99.326,57.673C99.326,66.517,106.504,73.694,115.347,73.694C117.622,73.694,119.801,73.213,121.755,72.348L121.755,118.551C121.755,122.075,118.871,124.959,115.347,124.959C111.822,124.959,108.939,122.075,108.939,118.551L108.939,89.714C108.939,82.633,103.203,76.898,96.122,76.898L89.714,76.898L89.714,32.041C89.714,24.96,83.979,19.224,76.898,19.224L38.449,19.224C31.368,19.224,25.633,24.96,25.633,32.041L25.633,134.571L89.714,134.571L89.714,86.51L99.326,86.51L99.326,118.551C99.326,127.394,106.504,134.571,115.347,134.571C124.19,134.571,131.367,127.394,131.367,118.551L131.367,57.673C131.367,53.252,129.573,49.247,126.689,46.331ZM76.898,64.082L38.449,64.082L38.449,32.041L76.898,32.041L76.898,64.082ZM115.347,64.082C111.822,64.082,108.939,61.198,108.939,57.673C108.939,54.149,111.822,51.265,115.347,51.265C118.871,51.265,121.755,54.149,121.755,57.673C121.755,61.198,118.871,64.082,115.347,64.082ZM115.347,64.082"/>
</g>
  <g id="Bold-L" transform="matrix(1.0,0.0,0.0,1.0,2264.362073088515,1448.1014785998968)">  <path stroke-linejoin="miter" stroke-miterlimit="4" stroke-opacity="1" stroke-linecap="butt" stroke-width="1px" fill-rule="nonzero" stroke-dasharray="none" fill="#000000" stroke="none" fill-opacity="1" d="M126.689,46.331L126.785,46.235L102.915,22.429L96.122,29.221L109.644,42.742C103.62,45.049,99.326,50.849,99.326,57.673C99.326,66.517,106.504,73.694,115.347,73.694C117.622,73.694,119.801,73.213,121.755,72.348L121.755,118.551C121.755,122.075,118.871,124.959,115.347,124.959C111.822,124.959,108.939,122.075,108.939,118.551L108.939,89.714C108.939,82.633,103.203,76.898,96.122,76.898L89.714,76.898L89.714,32.041C89.714,24.96,83.979,19.224,76.898,19.224L38.449,19.224C31.368,19.224,25.633,24.96,25.633,32.041L25.633,134.571L89.714,134.571L89.714,86.51L99.326,86.51L99.326,118.551C99.326,127.394,106.504,134.571,115.347,134.571C124.19,134.571,131.367,127.394,131.367,118.551L131.367,57.673C131.367,53.252,129.573,49.247,126.689,46.331ZM76.898,64.082L38.449,64.082L38.449,32.041L76.898,32.041L76.898,64.082ZM115.347,64.082C111.822,64.082,108.939,61.198,108.939,57.673C108.939,54.149,111.822,51.265,115.347,51.265C118.871,51.265,121.755,54.149,121.755,57.673C121.755,61.198,118.871,64.082,115.347,64.082ZM115.347,64.082"/>
</g>
  <g id="Semibold-L" transform="matrix(1.0,0.0,0.0,1.0,1967.6520730885152,1448.1014785998968)">  <path fill="#000000" stroke="none" stroke-dasharray="none" stroke-width="1px" fill-rule="nonzero" stroke-opacity="1" stroke-linecap="butt" fill-opacity="1" stroke-linejoin="miter" stroke-miterlimit="4" d="M126.689,46.331L126.785,46.235L102.915,22.429L96.122,29.221L109.644,42.742C103.62,45.049,99.326,50.849,99.326,57.673C99.326,66.517,106.504,73.694,115.347,73.694C117.622,73.694,119.801,73.213,121.755,72.348L121.755,118.551C121.755,122.075,118.871,124.959,115.347,124.959C111.822,124.959,108.939,122.075,108.939,118.551L108.939,89.714C108.939,82.633,103.203,76.898,96.122,76.898L89.714,76.898L89.714,32.041C89.714,24.96,83.979,19.224,76.898,19.224L38.449,19.224C31.368,19.224,25.633,24.96,25.633,32.041L25.633,134.571L89.714,134.571L89.714,86.51L99.326,86.51L99.326,118.551C99.326,127.394,106.504,134.571,115.347,134.571C124.19,134.571,131.367,127.394,131.367,118.551L131.367,57.673C131.367,53.252,129.573,49.247,126.689,46.331ZM76.898,64.082L38.449,64.082L38.449,32.041L76.898,32.041L76.898,64.082ZM115.347,64.082C111.822,64.082,108.939,61.198,108.939,57.673C108.939,54.149,111.822,51.265,115.347,51.265C118.871,51.265,121.755,54.149,121.755,57.673C121.755,61.198,118.871,64.082,115.347,64.082ZM115.347,64.082"/>
</g>
  <g id="Medium-L" transform="matrix(1.0,0.0,0.0,1.0,1670.9420730885151,1448.1014785998968)">  <path stroke="none" stroke-linejoin="miter" stroke-width="1px" stroke-dasharray="none" stroke-opacity="1" fill-opacity="1" fill-rule="nonzero" stroke-miterlimit="4" stroke-linecap="butt" fill="#000000" d="M126.689,46.331L126.785,46.235L102.915,22.429L96.122,29.221L109.644,42.742C103.62,45.049,99.326,50.849,99.326,57.673C99.326,66.517,106.504,73.694,115.347,73.694C117.622,73.694,119.801,73.213,121.755,72.348L121.755,118.551C121.755,122.075,118.871,124.959,115.347,124.959C111.822,124.959,108.939,122.075,108.939,118.551L108.939,89.714C108.939,82.633,103.203,76.898,96.122,76.898L89.714,76.898L89.714,32.041C89.714,24.96,83.979,19.224,76.898,19.224L38.449,19.224C31.368,19.224,25.633,24.96,25.633,32.041L25.633,134.571L89.714,134.571L89.714,86.51L99.326,86.51L99.326,118.551C99.326,127.394,106.504,134.571,115.347,134.571C124.19,134.571,131.367,127.394,131.367,118.551L131.367,57.673C131.367,53.252,129.573,49.247,126.689,46.331ZM76.898,64.082L38.449,64.082L38.449,32.041L76.898,32.041L76.898,64.082ZM115.347,64.082C111.822,64.082,108.939,61.198,108.939,57.673C108.939,54.149,111.822,51.265,115.347,51.265C118.871,51.265,121.755,54.149,121.755,57.673C121.755,61.198,118.871,64.082,115.347,64.082ZM115.347,64.082"/>
</g>
  <g id="Regular-L" transform="matrix(1.0,0.0,0.0,1.0,1374.232073088515,1448.1014785998968)">  <path fill="#000000" stroke-width="1px" stroke-linecap="butt" stroke-opacity="1" stroke-miterlimit="4" stroke-linejoin="miter" stroke-dasharray="none" fill-opacity="1" stroke="none" fill-rule="nonzero" d="M126.689,46.331L126.785,46.235L102.915,22.429L96.122,29.221L109.644,42.742C103.62,45.049,99.326,50.849,99.326,57.673C99.326,66.517,106.504,73.694,115.347,73.694C117.622,73.694,119.801,73.213,121.755,72.348L121.755,118.551C121.755,122.075,118.871,124.959,115.347,124.959C111.822,124.959,108.939,122.075,108.939,118.551L108.939,89.714C108.939,82.633,103.203,76.898,96.122,76.898L89.714,76.898L89.714,32.041C89.714,24.96,83.979,19.224,76.898,19.224L38.449,19.224C31.368,19.224,25.633,24.96,25.633,32.041L25.633,134.571L89.714,134.571L89.714,86.51L99.326,86.51L99.326,118.551C99.326,127.394,106.504,134.571,115.347,134.571C124.19,134.571,131.367,127.394,131.367,118.551L131.367,57.673C131.367,53.252,129.573,49.247,126.689,46.331ZM76.898,64.082L38.449,64.082L38.449,32.041L76.898,32.041L76.898,64.082ZM115.347,64.082C111.822,64.082,108.939,61.198,108.939,57.673C108.939,54.149,111.822,51.265,115.347,51.265C118.871,51.265,121.755,54.149,121.755,57.673C121.755,61.198,118.871,64.082,115.347,64.082ZM115.347,64.082"/>
</g>
  <g id="Light-L" transform="matrix(1.0,0.0,0.0,1.0,1077.5220730885153,1448.1014785998968)">  <path stroke-linejoin="miter" stroke-linecap="butt" stroke-miterlimit="4" fill-opacity="1" fill-rule="nonzero" stroke-width="1px" stroke-opacity="1" fill="#000000" stroke="none" stroke-dasharray="none" d="M126.689,46.331L126.785,46.235L102.915,22.429L96.122,29.221L109.644,42.742C103.62,45.049,99.326,50.849,99.326,57.673C99.326,66.517,106.504,73.694,115.347,73.694C117.622,73.694,119.801,73.213,121.755,72.348L121.755,118.551C121.755,122.075,118.871,124.959,115.347,124.959C111.822,124.959,108.939,122.075,108.939,118.551L108.939,89.714C108.939,82.633,103.203,76.898,96.122,76.898L89.714,76.898L89.714,32.041C89.714,24.96,83.979,19.224,76.898,19.224L38.449,19.224C31.368,19.224,25.633,24.96,25.633,32.041L25.633,134.571L89.714,134.571L89.714,86.51L99.326,86.51L99.326,118.551C99.326,127.394,106.504,134.571,115.347,134.571C124.19,134.571,131.367,127.394,131.367,118.551L131.367,57.673C131.367,53.252,129.573,49.247,126.689,46.331ZM76.898,64.082L38.449,64.082L38.449,32.041L76.898,32.041L76.898,64.082ZM115.347,64.082C111.822,64.082,108.939,61.198,108.939,57.673C108.939,54.149,111.822,51.265,115.347,51.265C118.871,51.265,121.755,54.149,121.755,57.673C121.755,61.198,118.871,64.082,115.347,64.082ZM115.347,64.082"/>
</g>
  <g id="Thin-L" transform="matrix(1.0,0.0,0.0,1.0,780.8120730885153,1448.1014785998968)">  <path stroke-dasharray="none" stroke-miterlimit="4" stroke-width="1px" stroke-linecap="butt" fill="#000000" fill-opacity="1" stroke-linejoin="miter" stroke="none" stroke-opacity="1" fill-rule="nonzero" d="M126.689,46.331L126.785,46.235L102.915,22.429L96.122,29.221L109.644,42.742C103.62,45.049,99.326,50.849,99.326,57.673C99.326,66.517,106.504,73.694,115.347,73.694C117.622,73.694,119.801,73.213,121.755,72.348L121.755,118.551C121.755,122.075,118.871,124.959,115.347,124.959C111.822,124.959,108.939,122.075,108.939,118.551L108.939,89.714C108.939,82.633,103.203,76.898,96.122,76.898L89.714,76.898L89.714,32.041C89.714,24.96,83.979,19.224,76.898,19.224L38.449,19.224C31.368,19.224,25.633,24.96,25.633,32.041L25.633,134.571L89.714,134.571L89.714,86.51L99.326,86.51L99.326,118.551C99.326,127.394,106.504,134.571,115.347,134.571C124.19,134.571,131.367,127.394,131.367,118.551L131.367,57.673C131.367,53.252,129.573,49.247,126.689,46.331ZM76.898,64.082L38.449,64.082L38.449,32.041L76.898,32.041L76.898,64.082ZM115.347,64.082C111.822,64.082,108.939,61.198,108.939,57.673C108.939,54.149,111.822,51.265,115.347,51.265C118.871,51.265,121.755,54.149,121.755,57.673C121.755,61.198,118.871,64.082,115.347,64.082ZM115.347,64.082"/>
</g>
  <g id="Ultralight-L" transform="matrix(1.0,0.0,0.0,1.0,484.1020730885152,1448.1014785998968)">  <path stroke-linecap="butt" fill="#000000" stroke-width="1px" fill-rule="nonzero" stroke-dasharray="none" stroke="none" stroke-opacity="1" fill-opacity="1" stroke-miterlimit="4" stroke-linejoin="miter" d="M126.689,46.331L126.785,46.235L102.915,22.429L96.122,29.221L109.644,42.742C103.62,45.049,99.326,50.849,99.326,57.673C99.326,66.517,106.504,73.694,115.347,73.694C117.622,73.694,119.801,73.213,121.755,72.348L121.755,118.551C121.755,122.075,118.871,124.959,115.347,124.959C111.822,124.959,108.939,122.075,108.939,118.551L108.939,89.714C108.939,82.633,103.203,76.898,96.122,76.898L89.714,76.898L89.714,32.041C89.714,24.96,83.979,19.224,76.898,19.224L38.449,19.224C31.368,19.224,25.633,24.96,25.633,32.041L25.633,134.571L89.714,134.571L89.714,86.51L99.326,86.51L99.326,118.551C99.326,127.394,106.504,134.571,115.347,134.571C124.19,134.571,131.367,127.394,131.367,118.551L131.367,57.673C131.367,53.252,129.573,49.247,126.689,46.331ZM76.898,64.082L38.449,64.082L38.449,32.041L76.898,32.041L76.898,64.082ZM115.347,64.082C111.822,64.082,108.939,61.198,108.939,57.673C108.939,54.149,111.822,51.265,115.347,51.265C118.871,51.265,121.755,54.149,121.755,57.673C121.755,61.198,118.871,64.082,115.347,64.082ZM115.347,64.082"/>
</g>
  <g id="Black-M" transform="matrix(1.0,0.0,0.0,1.0,2875.0692039445853,1034.4378172588833)">  <path stroke-opacity="1" fill-rule="nonzero" stroke-width="1px" fill="#000000" stroke="none" stroke-linejoin="miter" stroke-linecap="butt" fill-opacity="1" stroke-dasharray="none" stroke-miterlimit="4" d="M98.209,35.916L98.283,35.841L79.779,17.386L74.513,22.652L84.995,33.134C80.326,34.922,76.997,39.418,76.997,44.708C76.997,51.563,82.561,57.127,89.416,57.127C91.18,57.127,92.869,56.754,94.384,56.084L94.384,91.9C94.384,94.632,92.148,96.868,89.416,96.868C86.684,96.868,84.449,94.632,84.449,91.9L84.449,69.546C84.449,64.057,80.003,59.611,74.513,59.611L69.546,59.611L69.546,24.838C69.546,19.349,65.1,14.903,59.611,14.903L29.805,14.903C24.316,14.903,19.87,19.349,19.87,24.838L19.87,104.319L69.546,104.319L69.546,67.062L76.997,67.062L76.997,91.9C76.997,98.755,82.561,104.319,89.416,104.319C96.271,104.319,101.835,98.755,101.835,91.9L101.835,44.708C101.835,41.28,100.444,38.176,98.209,35.916ZM59.611,49.676L29.805,49.676L29.805,24.838L59.611,24.838L59.611,49.676ZM89.416,49.676C86.684,49.676,84.449,47.44,84.449,44.708C84.449,41.976,86.684,39.741,89.416,39.741C92.148,39.741,94.384,41.976,94.384,44.708C94.384,47.44,92.148,49.676,89.416,49.676ZM89.416,49.676"/>
</g>
  <g id="Heavy-M" transform="matrix(1.0,0.0,0.0,1.0,2578.3592039445853,1034.4378172588833)">  <path stroke-linejoin="miter" stroke-linecap="butt" stroke="none" stroke-miterlimit="4" fill="#000000" stroke-dasharray="none" fill-rule="nonzero" stroke-opacity="1" stroke-width="1px" fill-opacity="1" d="M98.209,35.916L98.283,35.841L79.779,17.386L74.513,22.652L84.995,33.134C80.326,34.922,76.997,39.418,76.997,44.708C76.997,51.563,82.561,57.127,89.416,57.127C91.18,57.127,92.869,56.754,94.384,56.084L94.384,91.9C94.384,94.632,92.148,96.868,89.416,96.868C86.684,96.868,84.449,94.632,84.449,91.9L84.449,69.546C84.449,64.057,80.003,59.611,74.513,59.611L69.546,59.611L69.546,24.838C69.546,19.349,65.1,14.903,59.611,14.903L29.805,14.903C24.316,14.903,19.87,19.349,19.87,24.838L19.87,104.319L69.546,104.319L69.546,67.062L76.997,67.062L76.997,91.9C76.997,98.755,82.561,104.319,89.416,104.319C96.271,104.319,101.835,98.755,101.835,91.9L101.835,44.708C101.835,41.28,100.444,38.176,98.209,35.916ZM59.611,49.676L29.805,49.676L29.805,24.838L59.611,24.838L59.611,49.676ZM89.416,49.676C86.684,49.676,84.449,47.44,84.449,44.708C84.449,41.976,86.684,39.741,89.416,39.741C92.148,39.741,94.384,41.976,94.384,44.708C94.384,47.44,92.148,49.676,89.416,49.676ZM89.416,49.676"/>
</g>
  <g id="Bold-M" transform="matrix(1.0,0.0,0.0,1.0,2281.649203944585,1034.4378172588833)">  <path stroke-linejoin="miter" stroke-miterlimit="4" stroke-opacity="1" stroke-linecap="butt" stroke-width="1px" fill-rule="nonzero" stroke-dasharray="none" fill="#000000" stroke="none" fill-opacity="1" d="M98.209,35.916L98.283,35.841L79.779,17.386L74.513,22.652L84.995,33.134C80.326,34.922,76.997,39.418,76.997,44.708C76.997,51.563,82.561,57.127,89.416,57.127C91.18,57.127,92.869,56.754,94.384,56.084L94.384,91.9C94.384,94.632,92.148,96.868,89.416,96.868C86.684,96.868,84.449,94.632,84.449,91.9L84.449,69.546C84.449,64.057,80.003,59.611,74.513,59.611L69.546,59.611L69.546,24.838C69.546,19.349,65.1,14.903,59.611,14.903L29.805,14.903C24.316,14.903,19.87,19.349,19.87,24.838L19.87,104.319L69.546,104.319L69.546,67.062L76.997,67.062L76.997,91.9C76.997,98.755,82.561,104.319,89.416,104.319C96.271,104.319,101.835,98.755,101.835,91.9L101.835,44.708C101.835,41.28,100.444,38.176,98.209,35.916ZM59.611,49.676L29.805,49.676L29.805,24.838L59.611,24.838L59.611,49.676ZM89.416,49.676C86.684,49.676,84.449,47.44,84.449,44.708C84.449,41.976,86.684,39.741,89.416,39.741C92.148,39.741,94.384,41.976,94.384,44.708C94.384,47.44,92.148,49.676,89.416,49.676ZM89.416,49.676"/>
</g>
  <g id="Semibold-M" transform="matrix(1.0,0.0,0.0,1.0,1984.9392039445854,1034.4378172588833)">  <path fill="#000000" stroke="none" stroke-dasharray="none" stroke-width="1px" fill-rule="nonzero" stroke-opacity="1" stroke-linecap="butt" fill-opacity="1" stroke-linejoin="miter" stroke-miterlimit="4" d="M98.209,35.916L98.283,35.841L79.779,17.386L74.513,22.652L84.995,33.134C80.326,34.922,76.997,39.418,76.997,44.708C76.997,51.563,82.561,57.127,89.416,57.127C91.18,57.127,92.869,56.754,94.384,56.084L94.384,91.9C94.384,94.632,92.148,96.868,89.416,96.868C86.684,96.868,84.449,94.632,84.449,91.9L84.449,69.546C84.449,64.057,80.003,59.611,74.513,59.611L69.546,59.611L69.546,24.838C69.546,19.349,65.1,14.903,59.611,14.903L29.805,14.903C24.316,14.903,19.87,19.349,19.87,24.838L19.87,104.319L69.546,104.319L69.546,67.062L76.997,67.062L76.997,91.9C76.997,98.755,82.561,104.319,89.416,104.319C96.271,104.319,101.835,98.755,101.835,91.9L101.835,44.708C101.835,41.28,100.444,38.176,98.209,35.916ZM59.611,49.676L29.805,49.676L29.805,24.838L59.611,24.838L59.611,49.676ZM89.416,49.676C86.684,49.676,84.449,47.44,84.449,44.708C84.449,41.976,86.684,39.741,89.416,39.741C92.148,39.741,94.384,41.976,94.384,44.708C94.384,47.44,92.148,49.676,89.416,49.676ZM89.416,49.676"/>
</g>
  <g id="Medium-M" transform="matrix(1.0,0.0,0.0,1.0,1688.2292039445854,1034.4378172588833)">  <path stroke="none" stroke-linejoin="miter" stroke-width="1px" stroke-dasharray="none" stroke-opacity="1" fill-opacity="1" fill-rule="nonzero" stroke-miterlimit="4" stroke-linecap="butt" fill="#000000" d="M98.209,35.916L98.283,35.841L79.779,17.386L74.513,22.652L84.995,33.134C80.326,34.922,76.997,39.418,76.997,44.708C76.997,51.563,82.561,57.127,89.416,57.127C91.18,57.127,92.869,56.754,94.384,56.084L94.384,91.9C94.384,94.632,92.148,96.868,89.416,96.868C86.684,96.868,84.449,94.632,84.449,91.9L84.449,69.546C84.449,64.057,80.003,59.611,74.513,59.611L69.546,59.611L69.546,24.838C69.546,19.349,65.1,14.903,59.611,14.903L29.805,14.903C24.316,14.903,19.87,19.349,19.87,24.838L19.87,104.319L69.546,104.319L69.546,67.062L76.997,67.062L76.997,91.9C76.997,98.755,82.561,104.319,89.416,104.319C96.271,104.319,101.835,98.755,101.835,91.9L101.835,44.708C101.835,41.28,100.444,38.176,98.209,35.916ZM59.611,49.676L29.805,49.676L29.805,24.838L59.611,24.838L59.611,49.676ZM89.416,49.676C86.684,49.676,84.449,47.44,84.449,44.708C84.449,41.976,86.684,39.741,89.416,39.741C92.148,39.741,94.384,41.976,94.384,44.708C94.384,47.44,92.148,49.676,89.416,49.676ZM89.416,49.676"/>
</g>
  <g id="Regular-M" transform="matrix(1.0,0.0,0.0,1.0,1391.5192039445853,1034.4378172588833)">  <path fill="#000000" stroke-width="1px" stroke-linecap="butt" stroke-opacity="1" stroke-miterlimit="4" stroke-linejoin="miter" stroke-dasharray="none" fill-opacity="1" stroke="none" fill-rule="nonzero" d="M98.209,35.916L98.283,35.841L79.779,17.386L74.513,22.652L84.995,33.134C80.326,34.922,76.997,39.418,76.997,44.708C76.997,51.563,82.561,57.127,89.416,57.127C91.18,57.127,92.869,56.754,94.384,56.084L94.384,91.9C94.384,94.632,92.148,96.868,89.416,96.868C86.684,96.868,84.449,94.632,84.449,91.9L84.449,69.546C84.449,64.057,80.003,59.611,74.513,59.611L69.546,59.611L69.546,24.838C69.546,19.349,65.1,14.903,59.611,14.903L29.805,14.903C24.316,14.903,19.87,19.349,19.87,24.838L19.87,104.319L69.546,104.319L69.546,67.062L76.997,67.062L76.997,91.9C76.997,98.755,82.561,104.319,89.416,104.319C96.271,104.319,101.835,98.755,101.835,91.9L101.835,44.708C101.835,41.28,100.444,38.176,98.209,35.916ZM59.611,49.676L29.805,49.676L29.805,24.838L59.611,24.838L59.611,49.676ZM89.416,49.676C86.684,49.676,84.449,47.44,84.449,44.708C84.449,41.976,86.684,39.741,89.416,39.741C92.148,39.741,94.384,41.976,94.384,44.708C94.384,47.44,92.148,49.676,89.416,49.676ZM89.416,49.676"/>
</g>
  <g id="Light-M" transform="matrix(1.0,0.0,0.0,1.0,1094.8092039445855,1034.4378172588833)">  <path stroke-linejoin="miter" stroke-linecap="butt" stroke-miterlimit="4" fill-opacity="1" fill-rule="nonzero" stroke-width="1px" stroke-opacity="1" fill="#000000" stroke="none" stroke-dasharray="none" d="M98.209,35.916L98.283,35.841L79.779,17.386L74.513,22.652L84.995,33.134C80.326,34.922,76.997,39.418,76.997,44.708C76.997,51.563,82.561,57.127,89.416,57.127C91.18,57.127,92.869,56.754,94.384,56.084L94.384,91.9C94.384,94.632,92.148,96.868,89.416,96.868C86.684,96.868,84.449,94.632,84.449,91.9L84.449,69.546C84.449,64.057,80.003,59.611,74.513,59.611L69.546,59.611L69.546,24.838C69.546,19.349,65.1,14.903,59.611,14.903L29.805,14.903C24.316,14.903,19.87,19.349,19.87,24.838L19.87,104.319L69.546,104.319L69.546,67.062L76.997,67.062L76.997,91.9C76.997,98.755,82.561,104.319,89.416,104.319C96.271,104.319,101.835,98.755,101.835,91.9L101.835,44.708C101.835,41.28,100.444,38.176,98.209,35.916ZM59.611,49.676L29.805,49.676L29.805,24.838L59.611,24.838L59.611,49.676ZM89.416,49.676C86.684,49.676,84.449,47.44,84.449,44.708C84.449,41.976,86.684,39.741,89.416,39.741C92.148,39.741,94.384,41.976,94.384,44.708C94.384,47.44,92.148,49.676,89.416,49.676ZM89.416,49.676"/>
</g>
  <g id="Thin-M" transform="matrix(1.0,0.0,0.0,1.0,798.0992039445855,1034.4378172588833)">  <path stroke-dasharray="none" stroke-miterlimit="4" stroke-width="1px" stroke-linecap="butt" fill="#000000" fill-opacity="1" stroke-linejoin="miter" stroke="none" stroke-opacity="1" fill-rule="nonzero" d="M98.209,35.916L98.283,35.841L79.779,17.386L74.513,22.652L84.995,33.134C80.326,34.922,76.997,39.418,76.997,44.708C76.997,51.563,82.561,57.127,89.416,57.127C91.18,57.127,92.869,56.754,94.384,56.084L94.384,91.9C94.384,94.632,92.148,96.868,89.416,96.868C86.684,96.868,84.449,94.632,84.449,91.9L84.449,69.546C84.449,64.057,80.003,59.611,74.513,59.611L69.546,59.611L69.546,24.838C69.546,19.349,65.1,14.903,59.611,14.903L29.805,14.903C24.316,14.903,19.87,19.349,19.87,24.838L19.87,104.319L69.546,104.319L69.546,67.062L76.997,67.062L76.997,91.9C76.997,98.755,82.561,104.319,89.416,104.319C96.271,104.319,101.835,98.755,101.835,91.9L101.835,44.708C101.835,41.28,100.444,38.176,98.209,35.916ZM59.611,49.676L29.805,49.676L29.805,24.838L59.611,24.838L59.611,49.676ZM89.416,49.676C86.684,49.676,84.449,47.44,84.449,44.708C84.449,41.976,86.684,39.741,89.416,39.741C92.148,39.741,94.384,41.976,94.384,44.708C94.384,47.44,92.148,49.676,89.416,49.676ZM89.416,49.676"/>
</g>
  <g id="Ultralight-M" transform="matrix(1.0,0.0,0.0,1.0,501.38920394458546,1034.4378172588833)">  <path stroke-linecap="butt" fill="#000000" stroke-width="1px" fill-rule="nonzero" stroke-dasharray="none" stroke="none" stroke-opacity="1" fill-opacity="1" stroke-miterlimit="4" stroke-linejoin="miter" d="M98.209,35.916L98.283,35.841L79.779,17.386L74.513,22.652L84.995,33.134C80.326,34.922,76.997,39.418,76.997,44.708C76.997,51.563,82.561,57.127,89.416,57.127C91.18,57.127,92.869,56.754,94.384,56.084L94.384,91.9C94.384,94.632,92.148,96.868,89.416,96.868C86.684,96.868,84.449,94.632,84.449,91.9L84.449,69.546C84.449,64.057,80.003,59.611,74.513,59.611L69.546,59.611L69.546,24.838C69.546,19.349,65.1,14.903,59.611,14.903L29.805,14.903C24.316,14.903,19.87,19.349,19.87,24.838L19.87,104.319L69.546,104.319L69.546,67.062L76.997,67.062L76.997,91.9C76.997,98.755,82.561,104.319,89.416,104.319C96.271,104.319,101.835,98.755,101.835,91.9L101.835,44.708C101.835,41.28,100.444,38.176,98.209,35.916ZM59.611,49.676L29.805,49.676L29.805,24.838L59.611,24.838L59.611,49.676ZM89.416,49.676C86.684,49.676,84.449,47.44,84.449,44.708C84.449,41.976,86.684,39.741,89.416,39.741C92.148,39.741,94.384,41.976,94.384,44.708C94.384,47.44,92.148,49.676,89.416,49.676ZM89.416,49.676"/>
</g>
  <g id="Black-S" transform="matrix(1.0,0.0,0.0,1.0,2888.0047466886103,616.6619051519868)">  <path stroke-opacity="1" fill-rule="nonzero" stroke-width="1px" fill="#000000" stroke="none" stroke-linejoin="miter" stroke-linecap="butt" fill-opacity="1" stroke-dasharray="none" stroke-miterlimit="4" d="M76.897,28.122L76.956,28.063L62.467,13.614L58.344,17.737L66.551,25.944C62.895,27.344,60.289,30.864,60.289,35.006C60.289,40.374,64.645,44.73,70.013,44.73C71.394,44.73,72.716,44.439,73.902,43.914L73.902,71.958C73.902,74.097,72.152,75.847,70.013,75.847C67.874,75.847,66.123,74.097,66.123,71.958L66.123,54.454C66.123,50.156,62.642,46.675,58.344,46.675L54.454,46.675L54.454,19.448C54.454,15.15,50.973,11.669,46.675,11.669L23.338,11.669C19.04,11.669,15.558,15.15,15.558,19.448L15.558,81.682L54.454,81.682L54.454,52.51L60.289,52.51L60.289,71.958C60.289,77.325,64.645,81.682,70.013,81.682C75.381,81.682,79.737,77.325,79.737,71.958L79.737,35.006C79.737,32.323,78.648,29.892,76.897,28.122ZM46.675,38.896L23.338,38.896L23.338,19.448L46.675,19.448L46.675,38.896ZM70.013,38.896C67.874,38.896,66.123,37.146,66.123,35.006C66.123,32.867,67.874,31.117,70.013,31.117C72.152,31.117,73.902,32.867,73.902,35.006C73.902,37.146,72.152,38.896,70.013,38.896ZM70.013,38.896"/>
</g>
  <g id="Heavy-S" transform="matrix(1.0,0.0,0.0,1.0,2591.2947466886103,616.6619051519868)">  <path stroke-linejoin="miter" stroke-linecap="butt" stroke="none" stroke-miterlimit="4" fill="#000000" stroke-dasharray="none" fill-rule="nonzero" stroke-opacity="1" stroke-width="1px" fill-opacity="1" d="M76.897,28.122L76.956,28.063L62.467,13.614L58.344,17.737L66.551,25.944C62.895,27.344,60.289,30.864,60.289,35.006C60.289,40.374,64.645,44.73,70.013,44.73C71.394,44.73,72.716,44.439,73.902,43.914L73.902,71.958C73.902,74.097,72.152,75.847,70.013,75.847C67.874,75.847,66.123,74.097,66.123,71.958L66.123,54.454C66.123,50.156,62.642,46.675,58.344,46.675L54.454,46.675L54.454,19.448C54.454,15.15,50.973,11.669,46.675,11.669L23.338,11.669C19.04,11.669,15.558,15.15,15.558,19.448L15.558,81.682L54.454,81.682L54.454,52.51L60.289,52.51L60.289,71.958C60.289,77.325,64.645,81.682,70.013,81.682C75.381,81.682,79.737,77.325,79.737,71.958L79.737,35.006C79.737,32.323,78.648,29.892,76.897,28.122ZM46.675,38.896L23.338,38.896L23.338,19.448L46.675,19.448L46.675,38.896ZM70.013,38.896C67.874,38.896,66.123,37.146,66.123,35.006C66.123,32.867,67.874,31.117,70.013,31.117C72.152,31.117,73.902,32.867,73.902,35.006C73.902,37.146,72.152,38.896,70.013,38.896ZM70.013,38.896"/>
</g>
  <g id="Bold-S" transform="matrix(1.0,0.0,0.0,1.0,2294.5847466886103,616.6619051519868)">  <path stroke-linejoin="miter" stroke-miterlimit="4" stroke-opacity="1" stroke-linecap="butt" stroke-width="1px" fill-rule="nonzero" stroke-dasharray="none" fill="#000000" stroke="none" fill-opacity="1" d="M76.897,28.122L76.956,28.063L62.467,13.614L58.344,17.737L66.551,25.944C62.895,27.344,60.289,30.864,60.289,35.006C60.289,40.374,64.645,44.73,70.013,44.73C71.394,44.73,72.716,44.439,73.902,43.914L73.902,71.958C73.902,74.097,72.152,75.847,70.013,75.847C67.874,75.847,66.123,74.097,66.123,71.958L66.123,54.454C66.123,50.156,62.642,46.675,58.344,46.675L54.454,46.675L54.454,19.448C54.454,15.15,50.973,11.669,46.675,11.669L23.338,11.669C19.04,11.669,15.558,15.15,15.558,19.448L15.558,81.682L54.454,81.682L54.454,52.51L60.289,52.51L60.289,71.958C60.289,77.325,64.645,81.682,70.013,81.682C75.381,81.682,79.737,77.325,79.737,71.958L79.737,35.006C79.737,32.323,78.648,29.892,76.897,28.122ZM46.675,38.896L23.338,38.896L23.338,19.448L46.675,19.448L46.675,38.896ZM70.013,38.896C67.874,38.896,66.123,37.146,66.123,35.006C66.123,32.867,67.874,31.117,70.013,31.117C72.152,31.117,73.902,32.867,73.902,35.006C73.902,37.146,72.152,38.896,70.013,38.896ZM70.013,38.896"/>
</g>
  <g id="Semibold-S" transform="matrix(1.0,0.0,0.0,1.0,1997.8747466886105,616.6619051519868)">  <path fill="#000000" stroke="none" stroke-dasharray="none" stroke-width="1px" fill-rule="nonzero" stroke-opacity="1" stroke-linecap="butt" fill-opacity="1" stroke-linejoin="miter" stroke-miterlimit="4" d="M76.897,28.122L76.956,28.063L62.467,13.614L58.344,17.737L66.551,25.944C62.895,27.344,60.289,30.864,60.289,35.006C60.289,40.374,64.645,44.73,70.013,44.73C71.394,44.73,72.716,44.439,73.902,43.914L73.902,71.958C73.902,74.097,72.152,75.847,70.013,75.847C67.874,75.847,66.123,74.097,66.123,71.958L66.123,54.454C66.123,50.156,62.642,46.675,58.344,46.675L54.454,46.675L54.454,19.448C54.454,15.15,50.973,11.669,46.675,11.669L23.338,11.669C19.04,11.669,15.558,15.15,15.558,19.448L15.558,81.682L54.454,81.682L54.454,52.51L60.289,52.51L60.289,71.958C60.289,77.325,64.645,81.682,70.013,81.682C75.381,81.682,79.737,77.325,79.737,71.958L79.737,35.006C79.737,32.323,78.648,29.892,76.897,28.122ZM46.675,38.896L23.338,38.896L23.338,19.448L46.675,19.448L46.675,38.896ZM70.013,38.896C67.874,38.896,66.123,37.146,66.123,35.006C66.123,32.867,67.874,31.117,70.013,31.117C72.152,31.117,73.902,32.867,73.902,35.006C73.902,37.146,72.152,38.896,70.013,38.896ZM70.013,38.896"/>
</g>
  <g id="Medium-S" transform="matrix(1.0,0.0,0.0,1.0,1701.1647466886104,616.6619051519868)">  <path stroke="none" stroke-linejoin="miter" stroke-width="1px" stroke-dasharray="none" stroke-opacity="1" fill-opacity="1" fill-rule="nonzero" stroke-miterlimit="4" stroke-linecap="butt" fill="#000000" d="M76.897,28.122L76.956,28.063L62.467,13.614L58.344,17.737L66.551,25.944C62.895,27.344,60.289,30.864,60.289,35.006C60.289,40.374,64.645,44.73,70.013,44.73C71.394,44.73,72.716,44.439,73.902,43.914L73.902,71.958C73.902,74.097,72.152,75.847,70.013,75.847C67.874,75.847,66.123,74.097,66.123,71.958L66.123,54.454C66.123,50.156,62.642,46.675,58.344,46.675L54.454,46.675L54.454,19.448C54.454,15.15,50.973,11.669,46.675,11.669L23.338,11.669C19.04,11.669,15.558,15.15,15.558,19.448L15.558,81.682L54.454,81.682L54.454,52.51L60.289,52.51L60.289,71.958C60.289,77.325,64.645,81.682,70.013,81.682C75.381,81.682,79.737,77.325,79.737,71.958L79.737,35.006C79.737,32.323,78.648,29.892,76.897,28.122ZM46.675,38.896L23.338,38.896L23.338,19.448L46.675,19.448L46.675,38.896ZM70.013,38.896C67.874,38.896,66.123,37.146,66.123,35.006C66.123,32.867,67.874,31.117,70.013,31.117C72.152,31.117,73.902,32.867,73.902,35.006C73.902,37.146,72.152,38.896,70.013,38.896ZM70.013,38.896"/>
</g>
  <g id="Regular-S" transform="matrix(1.0,0.0,0.0,1.0,1404.4547466886104,616.6619051519868)">  <path fill="#000000" stroke-width="1px" stroke-linecap="butt" stroke-opacity="1" stroke-miterlimit="4" stroke-linejoin="miter" stroke-dasharray="none" fill-opacity="1" stroke="none" fill-rule="nonzero" d="M76.897,28.122L76.956,28.063L62.467,13.614L58.344,17.737L66.551,25.944C62.895,27.344,60.289,30.864,60.289,35.006C60.289,40.374,64.645,44.73,70.013,44.73C71.394,44.73,72.716,44.439,73.902,43.914L73.902,71.958C73.902,74.097,72.152,75.847,70.013,75.847C67.874,75.847,66.123,74.097,66.123,71.958L66.123,54.454C66.123,50.156,62.642,46.675,58.344,46.675L54.454,46.675L54.454,19.448C54.454,15.15,50.973,11.669,46.675,11.669L23.338,11.669C19.04,11.669,15.558,15.15,15.558,19.448L15.558,81.682L54.454,81.682L54.454,52.51L60.289,52.51L60.289,71.958C60.289,77.325,64.645,81.682,70.013,81.682C75.381,81.682,79.737,77.325,79.737,71.958L79.737,35.006C79.737,32.323,78.648,29.892,76.897,28.122ZM46.675,38.896L23.338,38.896L23.338,19.448L46.675,19.448L46.675,38.896ZM70.013,38.896C67.874,38.896,66.123,37.146,66.123,35.006C66.123,32.867,67.874,31.117,70.013,31.117C72.152,31.117,73.902,32.867,73.902,35.006C73.902,37.146,72.152,38.896,70.013,38.896ZM70.013,38.896"/>
</g>
  <g id="Light-S" transform="matrix(1.0,0.0,0.0,1.0,1107.7447466886106,616.6619051519868)">  <path stroke-linejoin="miter" stroke-linecap="butt" stroke-miterlimit="4" fill-opacity="1" fill-rule="nonzero" stroke-width="1px" stroke-opacity="1" fill="#000000" stroke="none" stroke-dasharray="none" d="M76.897,28.122L76.956,28.063L62.467,13.614L58.344,17.737L66.551,25.944C62.895,27.344,60.289,30.864,60.289,35.006C60.289,40.374,64.645,44.73,70.013,44.73C71.394,44.73,72.716,44.439,73.902,43.914L73.902,71.958C73.902,74.097,72.152,75.847,70.013,75.847C67.874,75.847,66.123,74.097,66.123,71.958L66.123,54.454C66.123,50.156,62.642,46.675,58.344,46.675L54.454,46.675L54.454,19.448C54.454,15.15,50.973,11.669,46.675,11.669L23.338,11.669C19.04,11.669,15.558,15.15,15.558,19.448L15.558,81.682L54.454,81.682L54.454,52.51L60.289,52.51L60.289,71.958C60.289,77.325,64.645,81.682,70.013,81.682C75.381,81.682,79.737,77.325,79.737,71.958L79.737,35.006C79.737,32.323,78.648,29.892,76.897,28.122ZM46.675,38.896L23.338,38.896L23.338,19.448L46.675,19.448L46.675,38.896ZM70.013,38.896C67.874,38.896,66.123,37.146,66.123,35.006C66.123,32.867,67.874,31.117,70.013,31.117C72.152,31.117,73.902,32.867,73.902,35.006C73.902,37.146,72.152,38.896,70.013,38.896ZM70.013,38.896"/>
</g>
  <g id="Thin-S" transform="matrix(1.0,0.0,0.0,1.0,811.0347466886104,616.6619051519868)">  <path stroke-dasharray="none" stroke-miterlimit="4" stroke-width="1px" stroke-linecap="butt" fill="#000000" fill-opacity="1" stroke-linejoin="miter" stroke="none" stroke-opacity="1" fill-rule="nonzero" d="M76.897,28.122L76.956,28.063L62.467,13.614L58.344,17.737L66.551,25.944C62.895,27.344,60.289,30.864,60.289,35.006C60.289,40.374,64.645,44.73,70.013,44.73C71.394,44.73,72.716,44.439,73.902,43.914L73.902,71.958C73.902,74.097,72.152,75.847,70.013,75.847C67.874,75.847,66.123,74.097,66.123,71.958L66.123,54.454C66.123,50.156,62.642,46.675,58.344,46.675L54.454,46.675L54.454,19.448C54.454,15.15,50.973,11.669,46.675,11.669L23.338,11.669C19.04,11.669,15.558,15.15,15.558,19.448L15.558,81.682L54.454,81.682L54.454,52.51L60.289,52.51L60.289,71.958C60.289,77.325,64.645,81.682,70.013,81.682C75.381,81.682,79.737,77.325,79.737,71.958L79.737,35.006C79.737,32.323,78.648,29.892,76.897,28.122ZM46.675,38.896L23.338,38.896L23.338,19.448L46.675,19.448L46.675,38.896ZM70.013,38.896C67.874,38.896,66.123,37.146,66.123,35.006C66.123,32.867,67.874,31.117,70.013,31.117C72.152,31.117,73.902,32.867,73.902,35.006C73.902,37.146,72.152,38.896,70.013,38.896ZM70.013,38.896"/>
</g>
  <g id="Ultralight-S" transform="matrix(1.0,0.0,0.0,1.0,514.3247466886104,616.6619051519868)">  <path stroke-linecap="butt" fill="#000000" stroke-width="1px" fill-rule="nonzero" stroke-dasharray="none" stroke="none" stroke-opacity="1" fill-opacity="1" stroke-miterlimit="4" stroke-linejoin="miter" d="M76.897,28.122L76.956,28.063L62.467,13.614L58.344,17.737L66.551,25.944C62.895,27.344,60.289,30.864,60.289,35.006C60.289,40.374,64.645,44.73,70.013,44.73C71.394,44.73,72.716,44.439,73.902,43.914L73.902,71.958C73.902,74.097,72.152,75.847,70.013,75.847C67.874,75.847,66.123,74.097,66.123,71.958L66.123,54.454C66.123,50.156,62.642,46.675,58.344,46.675L54.454,46.675L54.454,19.448C54.454,15.15,50.973,11.669,46.675,11.669L23.338,11.669C19.04,11.669,15.558,15.15,15.558,19.448L15.558,81.682L54.454,81.682L54.454,52.51L60.289,52.51L60.289,71.958C60.289,77.325,64.645,81.682,70.013,81.682C75.381,81.682,79.737,77.325,79.737,71.958L79.737,35.006C79.737,32.323,78.648,29.892,76.897,28.122ZM46.675,38.896L23.338,38.896L23.338,19.448L46.675,19.448L46.675,38.896ZM70.013,38.896C67.874,38.896,66.123,37.146,66.123,35.006C66.123,32.867,67.874,31.117,70.013,31.117C72.152,31.117,73.902,32.867,73.902,35.006C73.902,37.146,72.152,38.896,70.013,38.896ZM70.013,38.896"/>
</g>
 </g>
</svg>
